<?xml version="1.0" standalone="no"?>
<!DOCTYPE svg PUBLIC "-//W3C//DTD SVG 1.1//EN" "http://www.w3.org/Graphics/SVG/1.1/DTD/svg11.dtd">
<svg width="100%" height="100%" viewBox="0 0 1129 1000" version="1.1" xmlns="http://www.w3.org/2000/svg" xmlns:xlink="http://www.w3.org/1999/xlink" xml:space="preserve" style="fill-rule:evenodd;clip-rule:evenodd;stroke-linejoin:round;stroke-miterlimit:1.41421;">
    <g transform="matrix(1.38883,0,0,1.38883,-212.122,-275.522)">
        <path d="M885.55,817.81L709.46,641.68C738.65,599.26 755.82,548 755.82,492.71C755.82,347.47 637.73,229.31 492.59,229.31C347.46,229.31 229.31,347.45 229.31,492.71C229.31,637.91 347.4,756.06 492.59,756.06C548,756.06 599.4,738.77 641.84,709.43L817.89,885.56C827.22,894.89 839.47,899.59 851.72,899.59C863.97,899.59 876.22,894.89 885.55,885.56C904.25,866.79 904.25,836.53 885.55,817.81ZM325.06,492.71C325.06,400.27 400.23,325.06 492.63,325.06C585.03,325.06 660.17,400.27 660.17,492.71C660.17,538.81 641.46,580.6 611.21,610.96C611.16,611.02 611.16,611.02 611.12,611.02C611.06,611.07 611.02,611.17 610.97,611.21C580.62,641.56 538.77,660.32 492.58,660.32C400.19,660.32 325.06,585.15 325.06,492.71Z" style="fill:white;"/>
    </g>
</svg>
